<svg width="518" height="83" viewBox="0 0 518 83" fill="none" xmlns="http://www.w3.org/2000/svg">
    <path d="M108.516 53.1671C108.509 52.0423 108.736 50.9279 109.182 49.8919C109.613 48.8904 110.236 47.9797 111.017 47.2094C111.813 46.4338 112.758 45.8212 113.797 45.407C114.868 44.9715 116.017 44.7484 117.177 44.7505C119.441 44.7453 121.614 45.6229 123.219 47.1905C124.824 48.7581 125.73 50.8874 125.737 53.1106V53.1499C125.742 54.292 125.515 55.4236 125.071 56.4792C124.65 57.4993 124.026 58.427 123.236 59.2085C122.446 59.9799 121.524 60.6084 120.512 61.0649C119.468 61.5448 118.329 61.7925 117.177 61.7903C116.032 61.802 114.898 61.5801 113.845 61.1386C112.793 60.6971 111.845 60.0457 111.063 59.2257C110.244 58.4364 109.597 57.4928 109.16 56.4517C108.722 55.4106 108.503 54.2934 108.516 53.1671V53.1671Z" fill="white"/>
    <path d="M18.233 80.461C14.6008 72.0911 11.6171 64.9949 9.28191 59.1724C6.94669 53.3498 5.09387 48.5281 3.72346 44.707C2.35137 40.886 1.38824 37.9354 0.834063 35.8552C0.279887 33.775 0.00196491 32.3038 0.000295708 31.4416C-0.0147002 29.9508 0.541142 28.509 1.55766 27.4017C2.59424 26.2395 4.18749 25.6576 6.33743 25.6559C7.96824 25.6559 9.24685 25.8018 10.1733 26.0936C10.8017 26.2734 11.4181 26.4918 12.0186 26.7477C12.9066 29.9507 13.9081 33.3529 15.0231 36.9543C16.1382 40.5557 17.2816 44.1382 18.4534 47.7019C19.6402 51.2672 20.8086 54.6694 21.9587 57.9085C23.1088 61.1476 24.1278 64.0409 25.0158 66.5882C25.8304 64.3327 26.7009 61.7492 27.6273 58.838C28.5537 55.9267 29.5177 52.9245 30.5192 49.8312C31.5207 46.738 32.5022 43.6079 33.4637 40.4409C34.4251 37.274 35.3148 34.2717 36.1327 31.4342C36.727 29.5442 37.5616 28.1066 38.6365 27.1214C39.7115 26.1362 41.435 25.6445 43.8069 25.6461C45.1668 25.6283 46.5203 25.831 47.813 26.2461C48.9965 26.6477 49.7376 26.9206 50.0364 27.0648C50.9978 30.3433 52.0352 33.7857 53.1486 37.392C54.262 40.9983 55.3736 44.5464 56.4837 48.0363C57.5954 51.5295 58.6887 54.8776 59.7637 58.0807C60.8386 61.2837 61.821 64.122 62.7106 66.5956C64.6352 61.5747 66.6174 56.0833 68.6572 50.1214C70.6969 44.1595 72.5648 38.1895 74.2607 32.2112C74.9284 29.9573 75.7997 28.3016 76.8747 27.2443C77.9496 26.187 79.598 25.6592 81.8197 25.6608C83.8227 25.6608 85.4502 25.9879 86.7121 26.6444C87.9741 27.3009 88.6751 27.6992 88.8253 27.8443C88.2294 30.2474 87.1912 33.5586 85.7106 37.778C84.23 41.9974 82.5608 46.5651 80.703 51.4811C78.8502 56.3988 76.8864 61.4206 74.8115 66.5464C72.7367 71.6723 70.7729 76.3121 68.9201 80.4659H55.8076C55.2151 78.9365 54.418 76.6982 53.4165 73.7508C52.415 70.8035 51.3217 67.5832 50.1365 64.0901C48.9514 60.5969 47.7829 57.0119 46.6312 53.3351C45.4794 49.6583 44.4245 46.2905 43.4664 43.2317C42.5016 46.2905 41.4458 49.6567 40.2991 53.3302C39.1523 57.0037 38.0039 60.5887 36.8538 64.0851C35.7021 67.5783 34.6455 70.7986 33.684 73.7459C32.7225 76.6933 31.9447 78.9316 31.3505 80.461H18.233Z" fill="white"/>
    <path d="M116.927 24.1278C121.052 24.098 125.145 24.839 128.988 26.3113C132.6 27.6889 135.903 29.748 138.71 32.3723C141.464 34.9727 143.657 38.091 145.157 41.5413C146.699 45.1733 147.493 49.0694 147.493 53.0044C147.493 56.9395 146.699 60.8356 145.157 64.4675C143.657 67.9189 141.465 71.0382 138.71 73.639C135.896 76.2688 132.593 78.3439 128.983 79.7517C121.228 82.7343 112.613 82.7343 104.859 79.7517C101.252 78.3428 97.9543 76.2678 95.1438 73.639C92.3892 71.0382 90.1965 67.9189 88.6965 64.4675C87.1556 60.8353 86.3623 56.9393 86.3623 53.0044C86.3623 49.0696 87.1556 45.1736 88.6965 41.5413C90.198 38.0915 92.3906 34.9734 95.1438 32.3723C97.9496 29.748 101.252 27.6889 104.864 26.3113C108.707 24.8388 112.801 24.0978 116.927 24.1278V24.1278ZM116.927 70.9638C119.334 70.9873 121.721 70.5227 123.938 69.5991C126.032 68.7286 127.91 67.4254 129.446 65.7781C130.979 64.1182 132.185 62.1931 133.001 60.1007C133.872 57.8524 134.306 55.4638 134.281 53.0585C134.298 50.6187 133.865 48.196 133.001 45.9082C132.209 43.7879 131.001 41.8407 129.446 40.1767C127.896 38.5588 126.02 37.2759 123.938 36.4097C119.433 34.5903 114.379 34.5903 109.874 36.4097C107.814 37.2842 105.96 38.5665 104.428 40.1767C102.87 41.8394 101.661 43.7869 100.87 45.9082C100.004 48.1953 99.5703 50.6185 99.5905 53.0585C99.5635 55.4639 99.9976 57.8528 100.87 60.1007C101.687 62.1937 102.893 64.119 104.428 65.7781C105.947 67.416 107.803 68.7184 109.874 69.5991C112.102 70.531 114.505 70.9958 116.927 70.9638V70.9638Z" fill="white"/>
    <path d="M152.23 45.1992C152.23 38.5046 154.324 33.3189 158.512 29.6421C162.7 25.9653 168.5 24.127 175.911 24.127C180.585 24.127 184.382 24.7638 187.303 26.0375C190.224 27.3111 191.688 29.2585 191.695 31.8797C191.685 33.1527 191.319 34.3986 190.638 35.4819C189.936 36.6474 189.361 37.3752 188.916 37.6653C187.408 36.9937 185.846 36.4459 184.246 36.0277C182.18 35.4911 180.049 35.2339 177.912 35.263C169.24 35.263 164.9 39.7758 164.892 48.8014V80.4614H152.23V45.1992Z" fill="white"/>
    <path d="M193.177 5.78632C193.177 3.81925 193.769 2.36362 194.954 1.41943C196.14 0.475231 197.809 0.00231435 199.962 0.000675125C201.203 -0.0119931 202.438 0.153685 203.63 0.492443C204.742 0.820288 205.483 1.05634 205.854 1.20059V45.799C206.817 45.1433 208.17 44.1819 209.912 42.9148C211.655 41.6477 213.6 40.2543 215.749 38.7348C217.897 37.2103 220.12 35.6137 222.419 33.945C224.717 32.2762 226.903 30.719 228.976 29.2732C230.373 28.2506 231.861 27.3551 233.423 26.5979C234.758 25.98 236.5 25.671 238.648 25.671C240.651 25.671 242.357 26.1988 243.764 27.2545C245.171 28.3101 246.06 29.2019 246.43 29.9297C244.875 31.3083 242.744 32.9958 240.038 34.9924C237.332 36.989 234.57 38.9798 231.75 40.9649C228.934 42.9615 226.264 44.813 223.738 46.5195C221.213 48.2259 219.397 49.4774 218.29 50.2741C224.46 54.7549 230.225 59.7501 235.521 65.2042C240.709 70.5644 245.081 75.6502 248.639 80.4613H232.855C231.15 78.4172 229.242 76.2862 227.131 74.0683C225.019 71.8504 222.758 69.6621 220.348 67.5032C217.939 65.3525 215.494 63.2732 213.012 61.2651C210.53 59.2571 208.139 57.4154 205.841 55.7401V80.4613H193.177V5.78632Z" fill="white"/>
    <path d="M251.883 66.8158C252.764 67.3688 253.695 67.8436 254.662 68.2346C256.278 68.9199 257.929 69.5215 259.609 70.0369C261.813 70.7109 264.059 71.2391 266.335 71.6179C269.052 72.0725 271.805 72.2921 274.562 72.2745C278.416 72.2745 281.566 71.7827 284.012 70.7992C286.457 69.8156 287.682 68.1239 287.687 65.7241C287.687 63.6849 286.909 62.1383 285.354 61.0843C283.798 60.0303 281.019 59.2844 277.016 58.8467L268.345 57.8632C265.573 57.6097 262.835 57.0791 260.173 56.2797C257.877 55.6079 255.715 54.556 253.781 53.1693C252.028 51.8874 250.601 50.2244 249.612 48.3106C248.61 46.3829 248.109 44.0724 248.109 41.3791C248.097 39.1056 248.57 36.8548 249.499 34.7722C250.49 32.6167 251.995 30.7269 253.886 29.262C255.889 27.6604 258.501 26.4048 261.723 25.495C264.944 24.5853 268.854 24.1304 273.451 24.1304C281.157 24.1304 287.142 24.968 291.405 26.6433C295.668 28.3186 297.795 30.5029 297.785 33.1961C297.803 33.988 297.632 34.7729 297.284 35.4878C296.975 36.1051 296.602 36.69 296.173 37.2335C295.804 37.7059 295.374 38.1283 294.893 38.49C294.59 38.7356 294.253 38.9376 293.892 39.09C293.286 38.5785 292.635 38.1218 291.946 37.7253C290.659 36.9754 289.3 36.3535 287.887 35.8689C285.894 35.1736 283.85 34.6262 281.773 34.2313C279.061 33.729 276.305 33.4918 273.546 33.5231C264.948 33.5231 260.649 35.7427 260.651 40.1817C260.651 42.075 261.466 43.5126 263.097 44.4945C264.728 45.4764 267.065 46.1493 270.108 46.5132L281.448 47.9344C287.597 48.736 292.377 50.3916 295.787 52.9013C299.197 55.4109 300.902 59.1041 300.902 63.9808C300.902 69.4394 298.697 73.8063 294.287 77.0815C289.877 80.3567 283.522 81.9959 275.221 81.9992C271.57 82.0284 267.924 81.7363 264.327 81.1263C261.447 80.6373 258.603 79.9629 255.814 79.1076C253.815 78.5027 251.865 77.7549 249.977 76.87C248.493 76.1422 247.529 75.5963 247.085 75.2324L251.883 66.8158Z" fill="white"/>
    <path d="M333.235 24.1278C337.36 24.098 341.453 24.839 345.296 26.3113C348.909 27.6894 352.214 29.7484 355.023 32.3723C357.777 34.9727 359.969 38.091 361.47 41.5413C363.012 45.1733 363.806 49.0694 363.806 53.0044C363.806 56.9395 363.012 60.8356 361.47 64.4675C359.97 67.9189 357.777 71.0382 355.023 73.639C352.208 76.2688 348.906 78.3439 345.296 79.7517C337.541 82.7343 328.926 82.7343 321.171 79.7517C317.56 78.3448 314.258 76.2697 311.444 73.639C308.69 71.0382 306.497 67.9189 304.997 64.4675C303.456 60.8353 302.663 56.9393 302.663 53.0044C302.663 49.0696 303.456 45.1736 304.997 41.5413C306.498 38.0915 308.691 34.9734 311.444 32.3723C314.252 29.747 317.557 27.6878 321.171 26.3113C325.015 24.8388 329.109 24.0978 333.235 24.1278V24.1278ZM333.235 70.9638C335.642 70.9873 338.029 70.5227 340.245 69.5991C342.34 68.7286 344.218 67.4254 345.754 65.7781C347.287 64.1182 348.492 62.1931 349.309 60.1007C350.18 57.8524 350.614 55.4638 350.589 53.0585C350.606 50.6187 350.173 48.196 349.309 45.9082C348.517 43.7879 347.309 41.8407 345.754 40.1767C344.204 38.5588 342.328 37.2759 340.245 36.4097C335.74 34.5903 330.686 34.5903 326.181 36.4097C324.122 37.2842 322.268 38.5665 320.736 40.1767C319.178 41.8394 317.969 43.7869 317.178 45.9082C316.312 48.1953 315.878 50.6185 315.898 53.0585C315.871 55.4639 316.305 57.8528 317.178 60.1007C317.995 62.1937 319.201 64.119 320.736 65.7781C322.255 67.416 324.111 68.7184 326.181 69.5991C328.41 70.531 330.813 70.9958 333.235 70.9638V70.9638Z" fill="white"/>
    <path d="M368.529 45.2004C368.529 41.7073 369.159 38.6501 370.419 36.029C371.615 33.4886 373.383 31.2485 375.59 29.4786C377.881 27.6769 380.503 26.3238 383.314 25.4928C386.449 24.5599 389.71 24.0998 392.986 24.1282C397.582 24.1282 401.695 24.9658 405.328 26.6411C408.881 28.2501 411.89 30.8264 413.998 34.0644C416.081 30.8463 419.049 28.2727 422.559 26.6411C426.114 24.9658 430.153 24.1282 434.675 24.1282C437.91 24.1041 441.132 24.5457 444.237 25.4388C447.037 26.2294 449.645 27.5675 451.906 29.3729C454.084 31.1574 455.831 33.3947 457.021 35.9232C458.281 38.546 458.911 41.6023 458.911 45.0923V80.4627H446.237V49.3485C446.237 44.3243 445.088 40.7393 442.789 38.5935C440.491 36.4478 437.379 35.3749 433.453 35.3749C429.672 35.3749 426.501 36.5757 423.938 38.9771C421.376 41.3786 420.101 45.2709 420.113 50.6542V80.4627H407.438V50.6542C407.438 45.266 406.16 41.372 403.602 38.9722C401.045 36.5724 397.874 35.3716 394.088 35.37C390.234 35.37 387.122 36.4617 384.751 38.6452C382.381 40.8286 381.195 44.4349 381.193 49.4641V80.47H368.519L368.529 45.2004Z" fill="white"/>
    <path d="M515.885 76.4216C515.289 76.7855 514.365 77.2944 513.106 77.951C511.591 78.7066 510.009 79.327 508.381 79.8049C506.229 80.4497 504.038 80.9605 501.821 81.3343C499.123 81.7891 496.389 82.008 493.651 81.9884C489.7 82.0202 485.771 81.3933 482.034 80.1344C478.532 78.9524 475.315 77.075 472.584 74.6192C469.83 72.1157 467.651 69.0645 466.192 65.6691C464.635 62.1382 463.857 58.0803 463.858 53.4953C463.858 49.1284 464.618 45.1435 466.137 41.5405C467.574 38.052 469.73 34.8928 472.469 32.2608C475.215 29.6525 478.466 27.6108 482.029 26.2563C485.701 24.8367 489.721 24.127 494.089 24.127C497.944 24.127 501.353 24.6187 504.317 25.6023C507.282 26.5858 509.786 27.8972 511.829 29.5364C513.774 31.0568 515.34 32.9925 516.409 35.1965C517.478 37.4005 518.022 39.8148 517.998 42.256C518.033 44.6419 517.54 47.0068 516.554 49.1874C515.589 51.2627 513.884 53.0462 511.441 54.5379C508.997 56.0296 505.698 57.1934 501.543 58.0294C497.392 58.8654 492.134 59.2834 485.769 59.2834C484.287 59.2834 482.897 59.2654 481.6 59.2294C480.303 59.1933 478.914 59.1384 477.432 59.0646C477.694 60.8502 478.316 62.5664 479.262 64.1129C480.208 65.6595 481.458 67.0052 482.94 68.0713C486.015 70.3663 490.406 71.5137 496.115 71.5137C497.903 71.5254 499.689 71.3789 501.451 71.076C502.94 70.8208 504.408 70.4558 505.842 69.9843C506.978 69.6101 508.092 69.1734 509.177 68.6762C510.102 68.2385 510.787 67.9107 511.233 67.6927L515.885 76.4216ZM476.863 50.5472C478.567 50.621 480.198 50.6578 481.756 50.6578H486.425C490.498 50.6578 493.796 50.4029 496.318 49.8931C498.84 49.3833 500.805 48.7276 502.212 47.9261C503.619 47.1245 504.545 46.2147 504.991 45.1968C505.431 44.1968 505.658 43.119 505.657 42.0298C505.657 39.2644 504.527 37.1899 502.267 35.8064C500.007 34.4229 497.209 33.732 493.874 33.7336C491.13 33.7336 488.721 34.2066 486.648 35.1524C484.657 36.0354 482.877 37.3187 481.423 38.9193C479.999 40.5085 478.887 42.3425 478.143 44.3288C477.375 46.3195 476.943 48.4199 476.863 50.5472V50.5472Z" fill="white"/>
</svg>
