<svg id="Ebene_1" data-name="Ebene 1" xmlns="http://www.w3.org/2000/svg" viewBox="0 0 216.22 78"><defs><style>.cls-1{fill:red;}</style></defs><title>MLL_Logo</title><circle class="cls-1" cx="13.43" cy="13.44" r="13.43"/><circle class="cls-1" cx="65.43" cy="13.43" r="13.43"/><circle class="cls-1" cx="178.09" cy="13.43" r="12.57"/><circle class="cls-1" cx="108.76" cy="13.43" r="10.83"/><circle class="cls-1" cx="13.43" cy="39.39" r="9.97"/><circle class="cls-1" cx="65.43" cy="39.39" r="10.83"/><circle class="cls-1" cx="178.09" cy="39.39" r="10.83"/><circle class="cls-1" cx="108.75" cy="39.39" r="12.57"/><circle class="cls-1" cx="39.43" cy="26.48" r="13.43"/><circle class="cls-1" cx="13.43" cy="65.43" r="11.27"/><path class="cls-1" d="M757.86,464a12.57,12.57,0,1,0,12.57,12.54A12.55,12.55,0,0,0,757.86,464Z" transform="translate(-692.43 -411.18)"/><circle class="cls-1" cx="204.08" cy="65.43" r="12.13"/><circle class="cls-1" cx="134.76" cy="65.43" r="12.57"/><circle class="cls-1" cx="178.09" cy="65.43" r="11.27"/><circle class="cls-1" cx="108.76" cy="65.43" r="10.83"/></svg>