<svg version="1.1" id="Layer_1" xmlns="http://www.w3.org/2000/svg" xmlns:xlink="http://www.w3.org/1999/xlink" x="0px" y="0px"
     width="204.09px" height="41.1px" viewBox="0 0 204.09 41.1" enable-background="new 0 0 204.09 41.1" xml:space="preserve">
<g id="SvgjsG1222" transform="matrix(3.075738959604728,0,0,3.075738959604728,-2.7681653569695803,-24.325246319868242)">
	<path fill="#1F9789" d="M5.538,21.024c-1.98,0-3.94-1.3-3.94-4.58v-5.98h2.86v5.78c0,1.7,0.66,2.28,1.76,2.28
		c1.52,0,2.42-1.44,2.64-2.16v-5.9h2.86v10.4h-2.86v-1.92C8.658,19.484,7.538,21.024,5.538,21.024L5.538,21.024z M18.538,18.465
		c0.54,0,0.94-0.06,1.38-0.22v2.4c-0.44,0.2-1.12,0.34-2.12,0.34c-1.62,0-2.98-0.56-2.98-3.5v-4.66h-1.46v-2.36h1.46v-2.44h2.86
		v2.44h2.22v2.36h-2.22v4.64C17.678,17.944,17.818,18.465,18.538,18.465z M26.758,10.284c2.36,0,5.62,1.78,5,6.38h-7.56
		c0.36,1.3,1.44,1.98,2.84,1.98c1.3,0,1.8-0.3,2.54-0.7l1.58,1.54c-0.9,0.94-2.18,1.58-4.22,1.58c-2.6,0-5.64-1.78-5.64-5.36
		C21.298,12.064,24.398,10.284,26.758,10.284L26.758,10.284z M26.758,12.725c-1.04,0-2.14,0.64-2.52,1.92h5
		C28.918,13.364,27.778,12.725,26.758,12.725z M38.658,10.284c1.9,0,3.5,0.82,4.48,2.5l-2.2,1.02c-0.56-0.56-1.1-0.98-2.24-0.98
		c-1.3,0-2.68,0.98-2.68,2.86c0,1.86,1.38,2.82,2.68,2.82c1.14,0,1.68-0.4,2.24-0.96l2.22,1.02c-1,1.68-2.56,2.46-4.5,2.46
		c-2.32,0-5.42-1.68-5.42-5.34C33.238,12.064,36.338,10.284,38.658,10.284z M49.878,10.284c1.9,0,3.5,0.82,4.48,2.5l-2.2,1.02
		c-0.56-0.56-1.1-0.98-2.24-0.98c-1.3,0-2.68,0.98-2.68,2.86c0,1.86,1.38,2.82,2.68,2.82c1.14,0,1.68-0.4,2.24-0.96l2.22,1.02
		c-1,1.68-2.56,2.46-4.5,2.46c-2.32,0-5.42-1.68-5.42-5.34C44.458,12.064,47.558,10.284,49.878,10.284z M63.698,10.465h2.86v10.4
		h-2.86v-1.28c-0.06,0.42-1.08,1.48-2.88,1.48c-2.38,0-5.14-1.72-5.14-5.42c0-3.58,2.76-5.36,5.14-5.36c1.8,0,2.82,1.12,2.88,1.34
		V10.465z M61.218,18.524c1.4,0,2.62-0.96,2.62-2.88c0-1.86-1.22-2.82-2.62-2.82c-1.44,0-2.76,0.98-2.76,2.82
		C58.458,17.544,59.778,18.524,61.218,18.524z"/>
</g>
</svg>
